<svg width="16" height="16" viewBox="0 0 16 16" fill="none" xmlns="http://www.w3.org/2000/svg">
<path d="M8 8.66656C9.10457 8.66656 10 7.77113 10 6.66656C10 5.562 9.10457 4.66656 8 4.66656C6.89543 4.66656 6 5.562 6 6.66656C6 7.77113 6.89543 8.66656 8 8.66656Z" stroke="#6C757D" stroke-linecap="round" stroke-linejoin="round"/>
<path d="M8.00005 1.33328C6.58556 1.33328 5.22901 1.89519 4.22881 2.89538C3.22862 3.89557 2.66672 5.25213 2.66672 6.66662C2.66672 7.92795 2.93472 8.75328 3.66672 9.66662L8.00005 14.6666L12.3334 9.66662C13.0654 8.75328 13.3334 7.92795 13.3334 6.66662C13.3334 5.25213 12.7715 3.89557 11.7713 2.89538C10.7711 1.89519 9.41454 1.33328 8.00005 1.33328V1.33328Z" stroke="#6C757D" stroke-linecap="round" stroke-linejoin="round"/>
</svg>
