<svg width="14" height="14" viewBox="0 0 14 14" fill="none" xmlns="http://www.w3.org/2000/svg">
<path d="M8.68663 1.3933C8.59288 1.29966 8.4658 1.24707 8.3333 1.24707C8.2008 1.24707 8.07371 1.29966 7.97996 1.3933L1.3933 7.97996C1.29966 8.07371 1.24707 8.2008 1.24707 8.3333C1.24707 8.4658 1.29966 8.59288 1.3933 8.68663L2.10596 9.39863C2.45442 9.20395 2.8569 9.12831 3.25226 9.1832C3.64762 9.23809 4.01426 9.42051 4.29651 9.70275C4.57875 9.985 4.76117 10.3516 4.81606 10.747C4.87095 11.1424 4.79531 11.5448 4.60063 11.8933L5.3133 12.6066C5.35973 12.6531 5.41486 12.69 5.47555 12.7151C5.53623 12.7402 5.60128 12.7532 5.66696 12.7532C5.73265 12.7532 5.7977 12.7402 5.85838 12.7151C5.91906 12.69 5.9742 12.6531 6.02063 12.6066L12.6066 6.02063C12.7003 5.92688 12.7529 5.7998 12.7529 5.6673C12.7529 5.5348 12.7003 5.40771 12.6066 5.31396L11.8933 4.59996C11.5448 4.79464 11.1424 4.87029 10.747 4.8154C10.3516 4.76051 9.985 4.57809 9.70275 4.29584C9.42051 4.0136 9.23809 3.64695 9.1832 3.25159C9.12831 2.85623 9.20395 2.45375 9.39863 2.1053L8.68663 1.3933ZM7.2733 0.68663C7.41258 0.54734 7.57794 0.43685 7.75993 0.361466C7.94192 0.286083 8.13698 0.247284 8.33396 0.247284C8.53095 0.247284 8.726 0.286083 8.90799 0.361466C9.08998 0.43685 9.25534 0.54734 9.39463 0.68663L10.1753 1.46796C10.516 1.80796 10.4553 2.28596 10.2833 2.57463C10.1887 2.73387 10.1499 2.92006 10.173 3.10381C10.196 3.28756 10.2796 3.4584 10.4106 3.58935C10.5415 3.7203 10.7124 3.8039 10.8961 3.82695C11.0799 3.84999 11.2661 3.81118 11.4253 3.71663C11.714 3.5453 12.192 3.48396 12.532 3.82463L13.3133 4.60663C13.4526 4.74592 13.5631 4.91128 13.6385 5.09327C13.7138 5.27526 13.7526 5.47031 13.7526 5.6673C13.7526 5.86428 13.7138 6.05934 13.6385 6.24133C13.5631 6.42332 13.4526 6.58868 13.3133 6.72796L6.72796 13.3133C6.58868 13.4526 6.42332 13.5631 6.24133 13.6385C6.05934 13.7138 5.86428 13.7526 5.6673 13.7526C5.47031 13.7526 5.27526 13.7138 5.09327 13.6385C4.91128 13.5631 4.74592 13.4526 4.60663 13.3133L3.8253 12.5326C3.4853 12.1926 3.5453 11.714 3.7173 11.426C3.81185 11.2667 3.85066 11.0805 3.82761 10.8968C3.80456 10.713 3.72096 10.5422 3.59001 10.4112C3.45906 10.2803 3.28823 10.1967 3.10448 10.1736C2.92073 10.1506 2.73453 10.1894 2.5753 10.284C2.28663 10.4553 1.80863 10.516 1.46863 10.1753L0.68663 9.39396C0.54734 9.25467 0.43685 9.08932 0.361466 8.90733C0.286083 8.72534 0.247284 8.53028 0.247284 8.3333C0.247284 8.13631 0.286083 7.94126 0.361466 7.75927C0.43685 7.57728 0.54734 7.41192 0.68663 7.27263L7.2733 0.68663Z" fill="#6C757D"/>
</svg>
